<mxfile host="app.diagrams.net" agent="Mozilla/5.0 (Macintosh; Intel Mac OS X 10_15_7) AppleWebKit/605.1.15 (KHTML, like Gecko) Version/18.5 Safari/605.1.15" version="28.2.5">
  <diagram name="Trang-1" id="RfA_R8pIar6faXcP8ChK">
    <mxGraphModel dx="808" dy="1638" grid="1" gridSize="10" guides="1" tooltips="1" connect="1" arrows="1" fold="1" page="1" pageScale="1" pageWidth="827" pageHeight="1169" math="0" shadow="0">
      <root>
        <mxCell id="0" />
        <mxCell id="1" parent="0" />
        <mxCell id="w1VVdYXGxSIHdRdnhShr-1" value="" style="ellipse;whiteSpace=wrap;html=1;" vertex="1" parent="1">
          <mxGeometry x="320" y="-20" width="120" height="40" as="geometry" />
        </mxCell>
        <mxCell id="w1VVdYXGxSIHdRdnhShr-2" value="Begin" style="text;html=1;align=center;verticalAlign=middle;whiteSpace=wrap;rounded=0;" vertex="1" parent="1">
          <mxGeometry x="350" y="-15" width="60" height="30" as="geometry" />
        </mxCell>
        <mxCell id="w1VVdYXGxSIHdRdnhShr-3" style="edgeStyle=orthogonalEdgeStyle;rounded=0;orthogonalLoop=1;jettySize=auto;html=1;exitX=0.5;exitY=1;exitDx=0;exitDy=0;" edge="1" parent="1" source="w1VVdYXGxSIHdRdnhShr-1" target="w1VVdYXGxSIHdRdnhShr-1">
          <mxGeometry relative="1" as="geometry" />
        </mxCell>
        <mxCell id="w1VVdYXGxSIHdRdnhShr-4" value="" style="shape=parallelogram;perimeter=parallelogramPerimeter;whiteSpace=wrap;html=1;fixedSize=1;" vertex="1" parent="1">
          <mxGeometry x="300" y="70" width="170" height="40" as="geometry" />
        </mxCell>
        <mxCell id="w1VVdYXGxSIHdRdnhShr-5" value="INPUT A,B,C" style="text;html=1;align=center;verticalAlign=middle;whiteSpace=wrap;rounded=0;" vertex="1" parent="1">
          <mxGeometry x="310" y="70" width="150" height="40" as="geometry" />
        </mxCell>
        <mxCell id="w1VVdYXGxSIHdRdnhShr-6" value="" style="rhombus;whiteSpace=wrap;html=1;" vertex="1" parent="1">
          <mxGeometry x="320" y="140" width="120" height="60" as="geometry" />
        </mxCell>
        <mxCell id="w1VVdYXGxSIHdRdnhShr-8" value="" style="endArrow=classic;html=1;rounded=0;" edge="1" parent="1">
          <mxGeometry width="50" height="50" relative="1" as="geometry">
            <mxPoint x="440" y="169.5" as="sourcePoint" />
            <mxPoint x="510" y="169.5" as="targetPoint" />
            <Array as="points" />
          </mxGeometry>
        </mxCell>
        <mxCell id="w1VVdYXGxSIHdRdnhShr-10" value="" style="shape=parallelogram;perimeter=parallelogramPerimeter;whiteSpace=wrap;html=1;fixedSize=1;" vertex="1" parent="1">
          <mxGeometry x="500" y="150" width="120" height="40" as="geometry" />
        </mxCell>
        <mxCell id="w1VVdYXGxSIHdRdnhShr-11" value="Display A" style="text;html=1;align=center;verticalAlign=middle;whiteSpace=wrap;rounded=0;" vertex="1" parent="1">
          <mxGeometry x="530" y="150" width="60" height="30" as="geometry" />
        </mxCell>
        <mxCell id="w1VVdYXGxSIHdRdnhShr-13" value="" style="endArrow=classic;html=1;rounded=0;" edge="1" parent="1">
          <mxGeometry width="50" height="50" relative="1" as="geometry">
            <mxPoint x="380" y="20" as="sourcePoint" />
            <mxPoint x="379" y="68" as="targetPoint" />
            <Array as="points">
              <mxPoint x="380" y="40" />
            </Array>
          </mxGeometry>
        </mxCell>
        <mxCell id="w1VVdYXGxSIHdRdnhShr-15" value="" style="endArrow=classic;html=1;rounded=0;entryX=0.5;entryY=0;entryDx=0;entryDy=0;" edge="1" parent="1" target="w1VVdYXGxSIHdRdnhShr-6">
          <mxGeometry width="50" height="50" relative="1" as="geometry">
            <mxPoint x="380" y="107" as="sourcePoint" />
            <mxPoint x="420" y="120" as="targetPoint" />
          </mxGeometry>
        </mxCell>
        <mxCell id="w1VVdYXGxSIHdRdnhShr-18" value="A &amp;gt; B &amp;amp;&amp;amp; A &amp;gt;C" style="text;html=1;align=center;verticalAlign=middle;whiteSpace=wrap;rounded=0;" vertex="1" parent="1">
          <mxGeometry x="330" y="155" width="110" height="30" as="geometry" />
        </mxCell>
        <mxCell id="w1VVdYXGxSIHdRdnhShr-19" value="" style="endArrow=classic;html=1;rounded=0;exitX=0;exitY=0.5;exitDx=0;exitDy=0;" edge="1" parent="1" source="w1VVdYXGxSIHdRdnhShr-6">
          <mxGeometry width="50" height="50" relative="1" as="geometry">
            <mxPoint x="240" y="200" as="sourcePoint" />
            <mxPoint x="270" y="170" as="targetPoint" />
          </mxGeometry>
        </mxCell>
        <mxCell id="w1VVdYXGxSIHdRdnhShr-21" value="" style="rhombus;whiteSpace=wrap;html=1;" vertex="1" parent="1">
          <mxGeometry x="170" y="130" width="100" height="80" as="geometry" />
        </mxCell>
        <mxCell id="w1VVdYXGxSIHdRdnhShr-22" value="B &amp;gt; C" style="text;html=1;align=center;verticalAlign=middle;whiteSpace=wrap;rounded=0;" vertex="1" parent="1">
          <mxGeometry x="190" y="155" width="60" height="30" as="geometry" />
        </mxCell>
        <mxCell id="w1VVdYXGxSIHdRdnhShr-23" value="" style="shape=parallelogram;perimeter=parallelogramPerimeter;whiteSpace=wrap;html=1;fixedSize=1;" vertex="1" parent="1">
          <mxGeometry x="20" y="145" width="120" height="50" as="geometry" />
        </mxCell>
        <mxCell id="w1VVdYXGxSIHdRdnhShr-24" value="Display B" style="text;html=1;align=center;verticalAlign=middle;whiteSpace=wrap;rounded=0;" vertex="1" parent="1">
          <mxGeometry x="50" y="155" width="60" height="30" as="geometry" />
        </mxCell>
        <mxCell id="w1VVdYXGxSIHdRdnhShr-25" value="" style="endArrow=classic;html=1;rounded=0;exitX=0;exitY=0.5;exitDx=0;exitDy=0;" edge="1" parent="1" source="w1VVdYXGxSIHdRdnhShr-21" target="w1VVdYXGxSIHdRdnhShr-23">
          <mxGeometry width="50" height="50" relative="1" as="geometry">
            <mxPoint x="160" y="170" as="sourcePoint" />
            <mxPoint x="210" y="120" as="targetPoint" />
          </mxGeometry>
        </mxCell>
        <mxCell id="w1VVdYXGxSIHdRdnhShr-26" value="Yes" style="text;html=1;align=center;verticalAlign=middle;whiteSpace=wrap;rounded=0;" vertex="1" parent="1">
          <mxGeometry x="430" y="130" width="60" height="30" as="geometry" />
        </mxCell>
        <mxCell id="w1VVdYXGxSIHdRdnhShr-27" value="No" style="text;html=1;align=center;verticalAlign=middle;whiteSpace=wrap;rounded=0;" vertex="1" parent="1">
          <mxGeometry x="270" y="130" width="60" height="30" as="geometry" />
        </mxCell>
        <mxCell id="w1VVdYXGxSIHdRdnhShr-28" value="Yes" style="text;html=1;align=center;verticalAlign=middle;whiteSpace=wrap;rounded=0;" vertex="1" parent="1">
          <mxGeometry x="130" y="130" width="60" height="30" as="geometry" />
        </mxCell>
        <mxCell id="w1VVdYXGxSIHdRdnhShr-29" value="" style="shape=parallelogram;perimeter=parallelogramPerimeter;whiteSpace=wrap;html=1;fixedSize=1;" vertex="1" parent="1">
          <mxGeometry x="160" y="240" width="130" height="40" as="geometry" />
        </mxCell>
        <mxCell id="w1VVdYXGxSIHdRdnhShr-30" value="Display C" style="text;html=1;align=center;verticalAlign=middle;whiteSpace=wrap;rounded=0;" vertex="1" parent="1">
          <mxGeometry x="195" y="245" width="60" height="30" as="geometry" />
        </mxCell>
        <mxCell id="w1VVdYXGxSIHdRdnhShr-31" value="" style="endArrow=classic;html=1;rounded=0;" edge="1" parent="1">
          <mxGeometry width="50" height="50" relative="1" as="geometry">
            <mxPoint x="220" y="210" as="sourcePoint" />
            <mxPoint x="220" y="240" as="targetPoint" />
          </mxGeometry>
        </mxCell>
        <mxCell id="w1VVdYXGxSIHdRdnhShr-32" value="No" style="text;html=1;align=center;verticalAlign=middle;whiteSpace=wrap;rounded=0;" vertex="1" parent="1">
          <mxGeometry x="220" y="200" width="60" height="30" as="geometry" />
        </mxCell>
        <mxCell id="w1VVdYXGxSIHdRdnhShr-33" value="" style="ellipse;whiteSpace=wrap;html=1;" vertex="1" parent="1">
          <mxGeometry x="320" y="340" width="120" height="80" as="geometry" />
        </mxCell>
        <mxCell id="w1VVdYXGxSIHdRdnhShr-34" value="END&amp;nbsp;" style="text;html=1;align=center;verticalAlign=middle;whiteSpace=wrap;rounded=0;" vertex="1" parent="1">
          <mxGeometry x="354" y="357.5" width="60" height="45" as="geometry" />
        </mxCell>
        <mxCell id="w1VVdYXGxSIHdRdnhShr-35" value="" style="endArrow=classic;html=1;rounded=0;entryX=0;entryY=0.5;entryDx=0;entryDy=0;exitX=0.417;exitY=1.04;exitDx=0;exitDy=0;exitPerimeter=0;" edge="1" parent="1" source="w1VVdYXGxSIHdRdnhShr-23" target="w1VVdYXGxSIHdRdnhShr-33">
          <mxGeometry width="50" height="50" relative="1" as="geometry">
            <mxPoint x="90" y="370" as="sourcePoint" />
            <mxPoint x="140" y="320" as="targetPoint" />
            <Array as="points">
              <mxPoint x="70" y="380" />
            </Array>
          </mxGeometry>
        </mxCell>
        <mxCell id="w1VVdYXGxSIHdRdnhShr-36" value="" style="endArrow=classic;html=1;rounded=0;exitX=0.442;exitY=1.05;exitDx=0;exitDy=0;exitPerimeter=0;entryX=1;entryY=0.5;entryDx=0;entryDy=0;" edge="1" parent="1" source="w1VVdYXGxSIHdRdnhShr-10" target="w1VVdYXGxSIHdRdnhShr-33">
          <mxGeometry width="50" height="50" relative="1" as="geometry">
            <mxPoint x="450" y="295" as="sourcePoint" />
            <mxPoint x="500" y="245" as="targetPoint" />
            <Array as="points">
              <mxPoint x="553" y="380" />
            </Array>
          </mxGeometry>
        </mxCell>
      </root>
    </mxGraphModel>
  </diagram>
</mxfile>
